<?xml version="1.0" encoding="UTF-8"?>
<!-- Generated by SVGo -->
<svg width="257.652mm" height="86.202mm" viewBox="0.000 0.000 257.652 86.202" xmlns="http://www.w3.org/2000/svg" xmlns:xlink="http://www.w3.org/1999/xlink">
<polygon points="252.652,81.202 5.001,81.202 5.001,5.001 252.652,5.001" style="fill:none;stroke-width:0.050000mm;stroke:black"/>
<polygon points="95.632,64.676 95.632,65.676 94.832,65.676 94.832,68.775 95.632,68.775 95.632,69.376 94.107,69.376 94.107,66.146 92.382,66.146 92.382,65.225 89.082,65.225 89.082,66.146 87.357,66.146 87.357,69.376 86.532,69.376 86.532,72.176 87.357,72.176 87.357,78.446 89.082,78.446 89.082,79.426 92.382,79.426 92.382,78.446 94.107,78.446 94.107,73.976 95.632,73.976 95.632,74.576 94.832,74.576 94.832,77.676 95.632,77.676 95.632,78.676 109.632,78.676 109.632,77.676 110.432,77.676 110.432,74.576 109.632,74.576 109.632,73.976 111.157,73.976 111.157,78.446 112.882,78.446 112.882,79.426 116.182,79.426 116.182,78.446 117.907,78.446 117.907,72.176 118.732,72.176 118.732,69.376 117.907,69.376 117.907,66.146 116.182,66.146 116.182,65.225 112.882,65.225 112.882,66.146 111.157,66.146 111.157,69.376 109.632,69.376 109.632,68.775 110.432,68.775 110.432,65.676 109.632,65.676 109.632,64.676" style="fill:none;stroke-width:0.050000mm;stroke:black"/>
<polygon points="143.257,64.676 143.257,65.676 142.457,65.676 142.457,68.775 143.257,68.775 143.257,69.376 141.732,69.376 141.732,66.146 140.007,66.146 140.007,65.225 136.707,65.225 136.707,66.146 134.982,66.146 134.982,69.376 134.157,69.376 134.157,72.176 134.982,72.176 134.982,78.446 136.707,78.446 136.707,79.426 140.007,79.426 140.007,78.446 141.732,78.446 141.732,73.976 143.257,73.976 143.257,74.576 142.457,74.576 142.457,77.676 143.257,77.676 143.257,78.676 157.257,78.676 157.257,77.676 158.057,77.676 158.057,74.576 157.257,74.576 157.257,73.976 158.782,73.976 158.782,78.446 160.507,78.446 160.507,79.426 163.807,79.426 163.807,78.446 165.532,78.446 165.532,72.176 166.357,72.176 166.357,69.376 165.532,69.376 165.532,66.146 163.807,66.146 163.807,65.225 160.507,65.225 160.507,66.146 158.782,66.146 158.782,69.376 157.257,69.376 157.257,68.775 158.057,68.775 158.057,65.676 157.257,65.676 157.257,64.676" style="fill:none;stroke-width:0.050000mm;stroke:black"/>
<polygon points="7.526,64.676 7.526,65.676 6.726,65.676 6.726,68.775 7.526,68.775 7.526,74.576 6.726,74.576 6.726,77.676 7.526,77.676 7.526,78.676 21.526,78.676 21.526,77.676 22.326,77.676 22.326,74.576 21.526,74.576 21.526,68.775 22.326,68.775 22.326,65.676 21.526,65.676 21.526,64.676" style="fill:none;stroke-width:0.050000mm;stroke:black"/>
<polygon points="26.576,64.676 26.576,65.676 25.776,65.676 25.776,68.775 26.576,68.775 26.576,74.576 25.776,74.576 25.776,77.676 26.576,77.676 26.576,78.676 40.576,78.676 40.576,77.676 41.376,77.676 41.376,74.576 40.576,74.576 40.576,68.775 41.376,68.775 41.376,65.676 40.576,65.676 40.576,64.676" style="fill:none;stroke-width:0.050000mm;stroke:black"/>
<polygon points="45.626,64.676 45.626,65.676 44.826,65.676 44.826,68.775 45.626,68.775 45.626,74.576 44.826,74.576 44.826,77.676 45.626,77.676 45.626,78.676 59.626,78.676 59.626,77.676 60.426,77.676 60.426,74.576 59.626,74.576 59.626,68.775 60.426,68.775 60.426,65.676 59.626,65.676 59.626,64.676" style="fill:none;stroke-width:0.050000mm;stroke:black"/>
<polygon points="64.676,64.676 64.676,65.676 63.876,65.676 63.876,68.775 64.676,68.775 64.676,74.576 63.876,74.576 63.876,77.676 64.676,77.676 64.676,78.676 78.676,78.676 78.676,77.676 79.476,77.676 79.476,74.576 78.676,74.576 78.676,68.775 79.476,68.775 79.476,65.676 78.676,65.676 78.676,64.676" style="fill:none;stroke-width:0.050000mm;stroke:black"/>
<polygon points="178.976,64.676 178.976,65.676 178.175,65.676 178.175,68.775 178.976,68.775 178.976,74.576 178.175,74.576 178.175,77.676 178.976,77.676 178.976,78.676 192.976,78.676 192.976,77.676 193.776,77.676 193.776,74.576 192.976,74.576 192.976,68.775 193.776,68.775 193.776,65.676 192.976,65.676 192.976,64.676" style="fill:none;stroke-width:0.050000mm;stroke:black"/>
<polygon points="198.026,64.676 198.026,65.676 197.226,65.676 197.226,68.775 198.026,68.775 198.026,74.576 197.226,74.576 197.226,77.676 198.026,77.676 198.026,78.676 212.026,78.676 212.026,77.676 212.826,77.676 212.826,74.576 212.026,74.576 212.026,68.775 212.826,68.775 212.826,65.676 212.026,65.676 212.026,64.676" style="fill:none;stroke-width:0.050000mm;stroke:black"/>
<polygon points="217.076,64.676 217.076,65.676 216.276,65.676 216.276,68.775 217.076,68.775 217.076,74.576 216.276,74.576 216.276,77.676 217.076,77.676 217.076,78.676 231.076,78.676 231.076,77.676 231.876,77.676 231.876,74.576 231.076,74.576 231.076,68.775 231.876,68.775 231.876,65.676 231.076,65.676 231.076,64.676" style="fill:none;stroke-width:0.050000mm;stroke:black"/>
<polygon points="236.126,64.676 236.126,65.676 235.326,65.676 235.326,68.775 236.126,68.775 236.126,74.576 235.326,74.576 235.326,77.676 236.126,77.676 236.126,78.676 250.126,78.676 250.126,77.676 250.926,77.676 250.926,74.576 250.126,74.576 250.126,68.775 250.926,68.775 250.926,65.676 250.126,65.676 250.126,64.676" style="fill:none;stroke-width:0.050000mm;stroke:black"/>
<polygon points="14.669,45.626 14.669,46.626 13.869,46.626 13.869,49.726 14.669,49.726 14.669,55.526 13.869,55.526 13.869,58.626 14.669,58.626 14.669,59.626 28.669,59.626 28.669,58.626 29.469,58.626 29.469,55.526 28.669,55.526 28.669,49.726 29.469,49.726 29.469,46.626 28.669,46.626 28.669,45.626" style="fill:none;stroke-width:0.050000mm;stroke:black"/>
<polygon points="40.863,45.626 40.863,46.626 40.063,46.626 40.063,49.726 40.863,49.726 40.863,55.526 40.063,55.526 40.063,58.626 40.863,58.626 40.863,59.626 54.863,59.626 54.863,58.626 55.663,58.626 55.663,55.526 54.863,55.526 54.863,49.726 55.663,49.726 55.663,46.626 54.863,46.626 54.863,45.626" style="fill:none;stroke-width:0.050000mm;stroke:black"/>
<polygon points="59.913,45.626 59.913,46.626 59.113,46.626 59.113,49.726 59.913,49.726 59.913,55.526 59.113,55.526 59.113,58.626 59.913,58.626 59.913,59.626 73.913,59.626 73.913,58.626 74.713,58.626 74.713,55.526 73.913,55.526 73.913,49.726 74.713,49.726 74.713,46.626 73.913,46.626 73.913,45.626" style="fill:none;stroke-width:0.050000mm;stroke:black"/>
<polygon points="78.963,45.626 78.963,46.626 78.163,46.626 78.163,49.726 78.963,49.726 78.963,55.526 78.163,55.526 78.163,58.626 78.963,58.626 78.963,59.626 92.963,59.626 92.963,58.626 93.763,58.626 93.763,55.526 92.963,55.526 92.963,49.726 93.763,49.726 93.763,46.626 92.963,46.626 92.963,45.626" style="fill:none;stroke-width:0.050000mm;stroke:black"/>
<script xmlns=""/><polygon points="98.013,45.626 98.013,46.626 97.213,46.626 97.213,49.726 98.013,49.726 98.013,55.526 97.213,55.526 97.213,58.626 98.013,58.626 98.013,59.626 112.013,59.626 112.013,58.626 112.813,58.626 112.813,55.526 112.013,55.526 112.013,49.726 112.813,49.726 112.813,46.626 112.013,46.626 112.013,45.626" style="fill:none;stroke-width:0.050000mm;stroke:black"/>
<polygon points="117.063,45.626 117.063,46.626 116.263,46.626 116.263,49.726 117.063,49.726 117.063,55.526 116.263,55.526 116.263,58.626 117.063,58.626 117.063,59.626 131.063,59.626 131.063,58.626 131.863,58.626 131.863,55.526 131.063,55.526 131.063,49.726 131.863,49.726 131.863,46.626 131.063,46.626 131.063,45.626" style="fill:none;stroke-width:0.050000mm;stroke:black"/>
<polygon points="136.113,45.626 136.113,46.626 135.313,46.626 135.313,49.726 136.113,49.726 136.113,55.526 135.313,55.526 135.313,58.626 136.113,58.626 136.113,59.626 150.113,59.626 150.113,58.626 150.913,58.626 150.913,55.526 150.113,55.526 150.113,49.726 150.913,49.726 150.913,46.626 150.113,46.626 150.113,45.626" style="fill:none;stroke-width:0.050000mm;stroke:black"/>
<polygon points="155.163,45.626 155.163,46.626 154.363,46.626 154.363,49.726 155.163,49.726 155.163,55.526 154.363,55.526 154.363,58.626 155.163,58.626 155.163,59.626 169.163,59.626 169.163,58.626 169.963,58.626 169.963,55.526 169.163,55.526 169.163,49.726 169.963,49.726 169.963,46.626 169.163,46.626 169.163,45.626" style="fill:none;stroke-width:0.050000mm;stroke:black"/>
<polygon points="174.213,45.626 174.213,46.626 173.413,46.626 173.413,49.726 174.213,49.726 174.213,55.526 173.413,55.526 173.413,58.626 174.213,58.626 174.213,59.626 188.213,59.626 188.213,58.626 189.013,58.626 189.013,55.526 188.213,55.526 188.213,49.726 189.013,49.726 189.013,46.626 188.213,46.626 188.213,45.626" style="fill:none;stroke-width:0.050000mm;stroke:black"/>
<polygon points="193.263,45.626 193.263,46.626 192.463,46.626 192.463,49.726 193.263,49.726 193.263,55.526 192.463,55.526 192.463,58.626 193.263,58.626 193.263,59.626 207.263,59.626 207.263,58.626 208.063,58.626 208.063,55.526 207.263,55.526 207.263,49.726 208.063,49.726 208.063,46.626 207.263,46.626 207.263,45.626" style="fill:none;stroke-width:0.050000mm;stroke:black"/>
<polygon points="212.313,45.626 212.313,46.626 211.513,46.626 211.513,49.726 212.313,49.726 212.313,55.526 211.513,55.526 211.513,58.626 212.313,58.626 212.313,59.626 226.313,59.626 226.313,58.626 227.113,58.626 227.113,55.526 226.313,55.526 226.313,49.726 227.113,49.726 227.113,46.626 226.313,46.626 226.313,45.626" style="fill:none;stroke-width:0.050000mm;stroke:black"/>
<polygon points="233.744,45.626 233.744,46.626 232.944,46.626 232.944,49.726 233.744,49.726 233.744,55.526 232.944,55.526 232.944,58.626 233.744,58.626 233.744,59.626 247.744,59.626 247.744,58.626 248.544,58.626 248.544,55.526 247.744,55.526 247.744,49.726 248.544,49.726 248.544,46.626 247.744,46.626 247.744,45.626" style="fill:none;stroke-width:0.050000mm;stroke:black"/>
<polygon points="9.907,26.576 9.907,27.576 9.107,27.576 9.107,30.676 9.907,30.676 9.907,36.476 9.107,36.476 9.107,39.576 9.907,39.576 9.907,40.576 23.907,40.576 23.907,39.576 24.707,39.576 24.707,36.476 23.907,36.476 23.907,30.676 24.707,30.676 24.707,27.576 23.907,27.576 23.907,26.576" style="fill:none;stroke-width:0.050000mm;stroke:black"/>
<polygon points="31.338,26.576 31.338,27.576 30.538,27.576 30.538,30.676 31.338,30.676 31.338,36.476 30.538,36.476 30.538,39.576 31.338,39.576 31.338,40.576 45.338,40.576 45.338,39.576 46.138,39.576 46.138,36.476 45.338,36.476 45.338,30.676 46.138,30.676 46.138,27.576 45.338,27.576 45.338,26.576" style="fill:none;stroke-width:0.050000mm;stroke:black"/>
<polygon points="50.388,26.576 50.388,27.576 49.588,27.576 49.588,30.676 50.388,30.676 50.388,36.476 49.588,36.476 49.588,39.576 50.388,39.576 50.388,40.576 64.388,40.576 64.388,39.576 65.188,39.576 65.188,36.476 64.388,36.476 64.388,30.676 65.188,30.676 65.188,27.576 64.388,27.576 64.388,26.576" style="fill:none;stroke-width:0.050000mm;stroke:black"/>
<polygon points="69.438,26.576 69.438,27.576 68.638,27.576 68.638,30.676 69.438,30.676 69.438,36.476 68.638,36.476 68.638,39.576 69.438,39.576 69.438,40.576 83.438,40.576 83.438,39.576 84.238,39.576 84.238,36.476 83.438,36.476 83.438,30.676 84.238,30.676 84.238,27.576 83.438,27.576 83.438,26.576" style="fill:none;stroke-width:0.050000mm;stroke:black"/>
<polygon points="88.488,26.576 88.488,27.576 87.688,27.576 87.688,30.676 88.488,30.676 88.488,36.476 87.688,36.476 87.688,39.576 88.488,39.576 88.488,40.576 102.488,40.576 102.488,39.576 103.288,39.576 103.288,36.476 102.488,36.476 102.488,30.676 103.288,30.676 103.288,27.576 102.488,27.576 102.488,26.576" style="fill:none;stroke-width:0.050000mm;stroke:black"/>
<polygon points="107.538,26.576 107.538,27.576 106.738,27.576 106.738,30.676 107.538,30.676 107.538,36.476 106.738,36.476 106.738,39.576 107.538,39.576 107.538,40.576 121.538,40.576 121.538,39.576 122.338,39.576 122.338,36.476 121.538,36.476 121.538,30.676 122.338,30.676 122.338,27.576 121.538,27.576 121.538,26.576" style="fill:none;stroke-width:0.050000mm;stroke:black"/>
<polygon points="126.588,26.576 126.588,27.576 125.788,27.576 125.788,30.676 126.588,30.676 126.588,36.476 125.788,36.476 125.788,39.576 126.588,39.576 126.588,40.576 140.588,40.576 140.588,39.576 141.388,39.576 141.388,36.476 140.588,36.476 140.588,30.676 141.388,30.676 141.388,27.576 140.588,27.576 140.588,26.576" style="fill:none;stroke-width:0.050000mm;stroke:black"/>
<polygon points="145.638,26.576 145.638,27.576 144.838,27.576 144.838,30.676 145.638,30.676 145.638,36.476 144.838,36.476 144.838,39.576 145.638,39.576 145.638,40.576 159.638,40.576 159.638,39.576 160.438,39.576 160.438,36.476 159.638,36.476 159.638,30.676 160.438,30.676 160.438,27.576 159.638,27.576 159.638,26.576" style="fill:none;stroke-width:0.050000mm;stroke:black"/>
<polygon points="164.688,26.576 164.688,27.576 163.888,27.576 163.888,30.676 164.688,30.676 164.688,36.476 163.888,36.476 163.888,39.576 164.688,39.576 164.688,40.576 178.688,40.576 178.688,39.576 179.488,39.576 179.488,36.476 178.688,36.476 178.688,30.676 179.488,30.676 179.488,27.576 178.688,27.576 178.688,26.576" style="fill:none;stroke-width:0.050000mm;stroke:black"/>
<polygon points="183.738,26.576 183.738,27.576 182.938,27.576 182.938,30.676 183.738,30.676 183.738,36.476 182.938,36.476 182.938,39.576 183.738,39.576 183.738,40.576 197.738,40.576 197.738,39.576 198.538,39.576 198.538,36.476 197.738,36.476 197.738,30.676 198.538,30.676 198.538,27.576 197.738,27.576 197.738,26.576" style="fill:none;stroke-width:0.050000mm;stroke:black"/>
<polygon points="202.788,26.576 202.788,27.576 201.988,27.576 201.988,30.676 202.788,30.676 202.788,36.476 201.988,36.476 201.988,39.576 202.788,39.576 202.788,40.576 216.788,40.576 216.788,39.576 217.588,39.576 217.588,36.476 216.788,36.476 216.788,30.676 217.588,30.676 217.588,27.576 216.788,27.576 216.788,26.576" style="fill:none;stroke-width:0.050000mm;stroke:black"/>
<polygon points="228.982,26.576 228.982,27.576 228.182,27.576 228.182,30.676 228.982,30.676 228.982,36.476 228.182,36.476 228.182,39.576 228.982,39.576 228.982,40.576 242.982,40.576 242.982,39.576 243.782,39.576 243.782,36.476 242.982,36.476 242.982,30.676 243.782,30.676 243.782,27.576 242.982,27.576 242.982,26.576" style="fill:none;stroke-width:0.050000mm;stroke:black"/>
<polygon points="7.526,7.526 7.526,8.526 6.726,8.526 6.726,11.626 7.526,11.626 7.526,17.426 6.726,17.426 6.726,20.526 7.526,20.526 7.526,21.526 21.526,21.526 21.526,20.526 22.326,20.526 22.326,17.426 21.526,17.426 21.526,11.626 22.326,11.626 22.326,8.526 21.526,8.526 21.526,7.526" style="fill:none;stroke-width:0.050000mm;stroke:black"/>
<polygon points="26.576,7.526 26.576,8.526 25.776,8.526 25.776,11.626 26.576,11.626 26.576,17.426 25.776,17.426 25.776,20.526 26.576,20.526 26.576,21.526 40.576,21.526 40.576,20.526 41.376,20.526 41.376,17.426 40.576,17.426 40.576,11.626 41.376,11.626 41.376,8.526 40.576,8.526 40.576,7.526" style="fill:none;stroke-width:0.050000mm;stroke:black"/>
<polygon points="45.626,7.526 45.626,8.526 44.826,8.526 44.826,11.626 45.626,11.626 45.626,17.426 44.826,17.426 44.826,20.526 45.626,20.526 45.626,21.526 59.626,21.526 59.626,20.526 60.426,20.526 60.426,17.426 59.626,17.426 59.626,11.626 60.426,11.626 60.426,8.526 59.626,8.526 59.626,7.526" style="fill:none;stroke-width:0.050000mm;stroke:black"/>
<polygon points="64.676,7.526 64.676,8.526 63.876,8.526 63.876,11.626 64.676,11.626 64.676,17.426 63.876,17.426 63.876,20.526 64.676,20.526 64.676,21.526 78.676,21.526 78.676,20.526 79.476,20.526 79.476,17.426 78.676,17.426 78.676,11.626 79.476,11.626 79.476,8.526 78.676,8.526 78.676,7.526" style="fill:none;stroke-width:0.050000mm;stroke:black"/>
<polygon points="83.726,7.526 83.726,8.526 82.926,8.526 82.926,11.626 83.726,11.626 83.726,17.426 82.926,17.426 82.926,20.526 83.726,20.526 83.726,21.526 97.726,21.526 97.726,20.526 98.525,20.526 98.525,17.426 97.726,17.426 97.726,11.626 98.525,11.626 98.525,8.526 97.726,8.526 97.726,7.526" style="fill:none;stroke-width:0.050000mm;stroke:black"/>
<polygon points="102.775,7.526 102.775,8.526 101.976,8.526 101.976,11.626 102.775,11.626 102.775,17.426 101.976,17.426 101.976,20.526 102.775,20.526 102.775,21.526 116.775,21.526 116.775,20.526 117.575,20.526 117.575,17.426 116.775,17.426 116.775,11.626 117.575,11.626 117.575,8.526 116.775,8.526 116.775,7.526" style="fill:none;stroke-width:0.050000mm;stroke:black"/>
<polygon points="121.825,7.526 121.825,8.526 121.025,8.526 121.025,11.626 121.825,11.626 121.825,17.426 121.025,17.426 121.025,20.526 121.825,20.526 121.825,21.526 135.826,21.526 135.826,20.526 136.626,20.526 136.626,17.426 135.826,17.426 135.826,11.626 136.626,11.626 136.626,8.526 135.826,8.526 135.826,7.526" style="fill:none;stroke-width:0.050000mm;stroke:black"/>
<polygon points="140.876,7.526 140.876,8.526 140.076,8.526 140.076,11.626 140.876,11.626 140.876,17.426 140.076,17.426 140.076,20.526 140.876,20.526 140.876,21.526 154.876,21.526 154.876,20.526 155.676,20.526 155.676,17.426 154.876,17.426 154.876,11.626 155.676,11.626 155.676,8.526 154.876,8.526 154.876,7.526" style="fill:none;stroke-width:0.050000mm;stroke:black"/>
<polygon points="159.926,7.526 159.926,8.526 159.126,8.526 159.126,11.626 159.926,11.626 159.926,17.426 159.126,17.426 159.126,20.526 159.926,20.526 159.926,21.526 173.926,21.526 173.926,20.526 174.726,20.526 174.726,17.426 173.926,17.426 173.926,11.626 174.726,11.626 174.726,8.526 173.926,8.526 173.926,7.526" style="fill:none;stroke-width:0.050000mm;stroke:black"/>
<polygon points="178.976,7.526 178.976,8.526 178.176,8.526 178.176,11.626 178.976,11.626 178.976,17.426 178.176,17.426 178.176,20.526 178.976,20.526 178.976,21.526 192.976,21.526 192.976,20.526 193.776,20.526 193.776,17.426 192.976,17.426 192.976,11.626 193.776,11.626 193.776,8.526 192.976,8.526 192.976,7.526" style="fill:none;stroke-width:0.050000mm;stroke:black"/>
<polygon points="198.026,7.526 198.026,8.526 197.226,8.526 197.226,11.626 198.026,11.626 198.026,17.426 197.226,17.426 197.226,20.526 198.026,20.526 198.026,21.526 212.026,21.526 212.026,20.526 212.826,20.526 212.826,17.426 212.026,17.426 212.026,11.626 212.826,11.626 212.826,8.526 212.026,8.526 212.026,7.526" style="fill:none;stroke-width:0.050000mm;stroke:black"/>
<polygon points="217.076,7.526 217.076,8.526 216.276,8.526 216.276,11.626 217.076,11.626 217.076,17.426 216.276,17.426 216.276,20.526 217.076,20.526 217.076,21.526 231.076,21.526 231.076,20.526 231.876,20.526 231.876,17.426 231.076,17.426 231.076,11.626 231.876,11.626 231.876,8.526 231.076,8.526 231.076,7.526" style="fill:none;stroke-width:0.050000mm;stroke:black"/>
<polygon points="236.126,7.526 236.126,8.526 235.326,8.526 235.326,11.626 236.126,11.626 236.126,17.426 235.326,17.426 235.326,20.526 236.126,20.526 236.126,21.526 250.126,21.526 250.126,20.526 250.926,20.526 250.926,17.426 250.126,17.426 250.126,11.626 250.926,11.626 250.926,8.526 250.126,8.526 250.126,7.526" style="fill:none;stroke-width:0.050000mm;stroke:black"/>
</svg>